PathFileType	4	(X/Y/Z)	10_1_34_p1_0-221.trc
DataRate	CameraRate	NumFrames	NumMarkers	Units	OrigDataRate	OrigDataStartFrame	OrigNumFrames
60.0	60.0	7	27	m	60.0	27	222
Frame#	Time	RHip			RKnee			RAnkle			RBigToe			RSmallToe			RHeel			LHip			LKnee			LAnkle			LBigToe			LSmallToe			LHeel			Neck			Head			Nose			RShoulder			RElbow			RWrist			RThumb			RIndex			RPinky			LShoulder			LElbow			LWrist			LThumb			LIndex			LPinky			
		X1	Y1	Z1	X2	Y2	Z2	X3	Y3	Z3	X4	Y4	Z4	X5	Y5	Z5	X6	Y6	Z6	X7	Y7	Z7	X8	Y8	Z8	X9	Y9	Z9	X10	Y10	Z10	X11	Y11	Z11	X12	Y12	Z12	X13	Y13	Z13	X14	Y14	Z14	X15	Y15	Z15	X16	Y16	Z16	X17	Y17	Z17	X18	Y18	Z18	X19	Y19	Z19	X20	Y20	Z20	X21	Y21	Z21	X22	Y22	Z22	X23	Y23	Z23	X24	Y24	Z24	X25	Y25	Z25	X26	Y26	Z26	X27	Y27	Z27	
27	0.45	0.29846048923399005	0.5442181391034087	1.019247111390522	0.2900396816045074	0.641271636921796	1.4111546341410157	0.2715042385751433	0.8044379210300922	1.7950873492735913	0.2709859699978186	0.6088179339749635	1.858988588170558	0.3236698217567243	0.6449187532260118	1.842935299214433	0.24811183291942757	0.8556849104313086	1.8387155515930749	0.07578988997826996	0.5425774857690434	1.0210297988319637	0.07394329761455179	0.6370320592526418	1.409734864541265	0.07425579350209459	0.7482988322276659	1.766973581871437	0.09225513797159259	0.6194088790710294	1.870857091699815	0.04366677862300996	0.6356046720136617	1.8435099636357641	0.0865918357629588	0.7833140097999418	1.7990710599281674	0.19400686448139767	0.4179179029648616	0.4288368616010502	0.2130562887011986	0.296252379346767	0.19832515559813696	0.22004174704273366	0.29458882064935304	0.3199144779880973	0.36048294510809187	0.4082961539744158	0.5482712532094488	0.42618462220633724	0.45921662714840056	0.8173406881337958	0.27290660114536336	0.35984048456986345	0.9639312903747459	0.18387231397610945	0.34914799942211766	1.0168704939416071	0.17888446354537163	0.35394242662139214	1.0432752900805518	0.1786767109461887	0.3823017176375152	1.0625074548612976	0.04235952638350639	0.4283863115802712	0.53865962818329	-0.017343189736536264	0.45624782521890594	0.8171223443195976	0.1359068115217753	0.3433458818227682	0.9415124990462344	0.21622767924176398	0.31223847186336445	0.9935604162358794	0.21401496887998586	0.32549233021952445	1.024819109454478	0.19073771086667046	0.35220342325793186	1.0500259588632448
28	0.4666666666666667	0.29842120787636356	0.5442591082877243	1.019351522351765	0.2891446936939869	0.6426440677810336	1.4157460888541837	0.2714811844809757	0.8044770286161727	1.7950950495221727	0.27215690874738907	0.6075738187550471	1.8539803111638802	0.32382908271677213	0.6451963735159811	1.8431708125381707	0.24813930975733145	0.8559219806012768	1.8383746832975982	0.07570116263899261	0.5426873625793781	1.020965489092509	0.07308763958737712	0.6381955273983868	1.4136435321911194	0.0738082864942779	0.7494250338894173	1.763688731144119	0.09231802393762152	0.6191023400035031	1.8706903382596467	0.04949055734631814	0.6214821917691404	1.837954446983815	0.08658892900169896	0.7832257620507164	1.799453376971476	0.19893614334399626	0.40519140216535127	0.42944619640481496	0.21306008564362588	0.29635008310846883	0.19833577521774087	0.220017348357209	0.29453990826259324	0.3199256666958317	0.36033873157181845	0.40818493389801647	0.548221200439575	0.430582004046484	0.4441186060059412	0.8128105531689354	0.2731288984012065	0.3597252756304667	0.9635814545201951	0.18509067094801876	0.34751794684399334	1.0168667684930337	0.17916605367696944	0.3504632448362821	1.0355256929183356	0.18318074130329862	0.38284884347814435	1.0615156015742357	0.042369110604039216	0.4287139980901975	0.5386370471802993	-0.023237532334224164	0.4692509220169698	0.8179751958149767	0.13781713085883962	0.3549693710308857	0.9420697745344236	0.22175194335141787	0.2994819426488436	0.9912550466299819	0.21911618262647814	0.3129622898943546	1.0221487094860378	0.19466212250420878	0.35405549845355516	1.049866043485955
29	0.48333333333333334	0.29328073143243866	0.5405546392980998	1.0151500775908007	0.2849544414193773	0.6408920946504487	1.4157161077049736	0.2621407001628696	0.8185043710415463	1.8050957055549472	0.27117723874520977	0.6086128249021179	1.860022956809553	0.3251042915825503	0.6344473868595302	1.8398885849410476	0.2456567389918382	0.8516094535949084	1.8433265228915312	0.07183683827007016	0.5414146887991788	1.0210421613872718	0.07115303875343996	0.6241202475654007	1.4103371228625916	0.0743865914941667	0.7478906369142759	1.7669321491234282	0.09237124368509587	0.6191683293359272	1.8708474004535138	0.04360154274980649	0.6355466904980411	1.8435216957949034	0.08580600298228121	0.7799160274584586	1.7938590324119656	0.19887289494213528	0.4051726758812474	0.4294427609503688	0.21303085626921514	0.2962595005241657	0.19833303972104058	0.2199863832912567	0.294641230630637	0.3199296140956135	0.3560886203375158	0.4057873754402828	0.5483642711315735	0.4308313204046208	0.44401641004832637	0.8127525793918351	0.2782166975671837	0.3459256421742023	0.958287907745935	0.18532085116295294	0.3479217545101874	1.0098984862271383	0.17962167707608892	0.3500444194729604	1.0317368694142206	0.18810786605456753	0.3710886584603468	1.058331334209967	0.042365079040955926	0.4286401662370063	0.5385221702178221	-0.023437770202377365	0.4695818344808468	0.8180366078700799	0.13521151654291327	0.3430011232473292	0.9333280972705092	0.2255125605460823	0.3128771550351571	0.9854388474251999	0.22135740442807825	0.31351027840274986	1.0107850354351227	0.19516231756855384	0.3529019982154118	1.0454099884922536
30	0.5	0.2901849321708963	0.5270856272195978	1.0137849082602877	0.28152698167369977	0.6259755793412083	1.4125375754179637	0.262116133147287	0.8185000917910652	1.8051502484799595	0.26790113697412277	0.594726665658984	1.854818449448056	0.3251373065441864	0.6339568004377125	1.8396191299500875	0.24843058620397024	0.855349967438196	1.840882240511912	0.07068157410704272	0.5398398994892235	1.0200821919516792	0.07118778574535063	0.6240520957859828	1.4102053164253092	0.07385745265552351	0.7496726504216267	1.763544959073916	0.09234552370516469	0.6190239542016486	1.8707329044536232	0.04949997406900616	0.6215477867949435	1.837895363128811	0.09340416197896972	0.8022781479835295	1.8051799857695565	0.19881231745194822	0.4051681190074202	0.4294640051696911	0.21305194675889974	0.2963959648468971	0.1983175895727515	0.21611597729249715	0.29319106819295815	0.32019233175369716	0.35593021321721896	0.4055947159377422	0.5483173785395719	0.4345085253426399	0.4319073803803004	0.8150269510692416	0.2785566568874016	0.3456547476832016	0.9574190327249175	0.18389371383547534	0.349929050755852	1.0025049570767952	0.17840819553273438	0.35212078763951066	1.0202542986734096	0.19353309849085795	0.3582900834405336	1.0485861649196664	0.04202216593907032	0.4294621374766703	0.5347346802047247	-0.023822395301355215	0.47276254797005957	0.8180340877313079	0.13565985184053683	0.3299895683226843	0.9241996019413404	0.2360639802873242	0.28720480862881287	0.971496467910535	0.23152028923810777	0.29038284916339663	0.9937537667967179	0.19578792725653044	0.3523194787918597	1.0327032677596215
31	0.5166666666666667	0.28586752382104735	0.5257319211844089	1.0141449061341268	0.2789811808121127	0.6098914146845585	1.4046684889683627	0.2621403813672416	0.818277644685172	1.8051055333801675	0.2712871538294705	0.6084781910658764	1.8600481021802475	0.32551709882930646	0.6344045788899205	1.839989080752592	0.24567213429186688	0.851753177708385	1.843362568400145	0.07105536094336808	0.5424627201441845	1.024748411921641	0.07681073984037151	0.6098655856215227	1.4063683835870915	0.07386462583881079	0.7495416569304025	1.7635097707830625	0.09241563414797443	0.6190062338345886	1.870866035039647	0.049659406562985106	0.6217181330017356	1.8381621215805735	0.09337532127899659	0.802265387415107	1.8052479313130438	0.19890816567288716	0.4051661439809625	0.42949538235312607	0.2129901054739348	0.29633049328421635	0.19833255603030844	0.21609181343594344	0.2932677888745197	0.32024418388672393	0.34874802157851464	0.3919566648644137	0.5489502742341945	0.4343527085526488	0.42918836287052214	0.8037567737255767	0.2812027382725594	0.35801139689188805	0.9537736055012679	0.18624142853538025	0.3343276216313189	0.9862607725802374	0.17736541694295582	0.34797446497026474	1.0078464082774579	0.19310332218417736	0.359423329153273	1.0396827714123218	0.04383621453046744	0.4418666299912241	0.5339920593707778	-0.024197971313133563	0.4706462989142683	0.8142010272785662	0.12638442416251677	0.33798147567860415	0.9143256530540744	0.24666995646983444	0.28407187586472105	0.9501617885561978	0.23795326178461554	0.2969957313840886	0.9820557086704971	0.19133718886931594	0.3442297650110021	1.0268767853555498
32	0.5333333333333333	0.2758293536464266	0.5313428111947748	1.0323167921169638	0.27570215618791677	0.607084311006421	1.40007837209599	0.26125932494677945	0.8152998377036188	1.7995105068177826	0.26875820162413705	0.5933867693055435	1.849390840730786	0.3241081728788515	0.6335171116810931	1.8390898444748218	0.2484897206072304	0.8557302314013913	1.8401368809300203	0.07140992940767729	0.5451984764136968	1.0299439297675739	0.07754721070812207	0.6128692451588721	1.4116385740821527	0.07991984641303847	0.7341273731720098	1.758261658441836	0.09251984423305704	0.6188355319718796	1.870892189144802	0.04960636906114689	0.6215673430904889	1.8380113207181996	0.09339161625208015	0.8023204489654958	1.8054074873385242	0.19888648431448752	0.4050584352627835	0.4294154256860763	0.21300197744833912	0.29632146673438625	0.198317383975834	0.21604997300411802	0.29327328241841066	0.3202196885820427	0.34867378534989746	0.3915651576871267	0.5489089503562777	0.43944276653725395	0.4286957539021539	0.7998555717373917	0.280535220425676	0.3581571764776902	0.9417559898743019	0.1861939119227801	0.34474633188589177	0.9643384109817139	0.18502952303106007	0.34620562133012334	0.9950080904122366	0.1919521246903452	0.3637625209080974	1.0094836646382497	0.04387716925118169	0.4417746312414424	0.5338931428307921	-0.03028453139520571	0.48375126277974034	0.8148363079850971	0.11956521280696865	0.32223612276797314	0.9059142621318435	0.24493536097463744	0.2713928668407614	0.9283030145633708	0.251245546052106	0.25758281876425976	0.957631549828642	0.18956291777176615	0.34482882506791107	0.9994960902803456
33	0.55	0.2728117326328445	0.5178822644621637	1.0312604258140003	0.27248133145945	0.5925153919710582	1.3969566259891837	0.2622024188685271	0.818505279222052	1.8050939038266245	0.2722234017322637	0.6076604744647623	1.8544809113329304	0.32270581596263276	0.6636412884513447	1.8504179552923907	0.24696195928121065	0.8511982615161005	1.8367302715015856	0.07173574497849204	0.5471639184221249	1.0345463694564345	0.07686502273152031	0.6098309782598165	1.4066122641998196	0.08069947729943781	0.737212085349354	1.7642553960436917	0.09332275335417509	0.621535150608265	1.8762830521419118	0.04960872731093908	0.6216009463611238	1.838142374453823	0.0933064311836937	0.8021192883057109	1.8053897239089205	0.1991363006263442	0.404354915933762	0.4262449339851253	0.21301945514633336	0.29628273206054256	0.19833692991030225	0.21601133139246587	0.29314031301641097	0.32031593115371443	0.3487590692375596	0.3918082838610701	0.5489865863976562	0.4530438371042698	0.4154860257791261	0.7900165636057475	0.2878574137003876	0.3432372617561898	0.9209067005899176	0.1822552643148944	0.334831919246493	0.919556926296432	0.1838865454661955	0.34466258265542193	0.9868842827999352	0.1891007545322866	0.34680670966550864	0.9963522259067056	0.04374346607093802	0.4398555212402752	0.5303104813299672	-0.03099570539357574	0.4848624702341879	0.8108226114083096	0.11868389006389132	0.30707198738127967	0.9009592700812459	0.23999228203422396	0.26274016261813943	0.8949621467522517	0.24749208419787266	0.25627798706029314	0.9515009178214135	0.19447798204356326	0.332867861484975	0.9900587276803073
